<svg width="345" height="218" viewBox="0 0 345 218" fill="none" xmlns="http://www.w3.org/2000/svg">
<path d="M268.154 154.14H66.8096V213.047H268.154V154.14Z" fill="#F0F0F0"/>
<path d="M179.219 166.315H155.742V213.048H179.219V166.315Z" fill="#CACACA"/>
<path d="M256.415 84.6299H78.5469V138.824H256.415V84.6299Z" fill="#F0F0F0"/>
<path d="M274.447 87.9677H60.5142C60.1571 87.9677 59.8081 87.8623 59.5121 87.665C59.2161 87.4678 58.9867 87.1876 58.8532 86.8607C58.7198 86.5337 58.6885 86.1748 58.7634 85.8301C58.8383 85.4855 59.0159 85.1708 59.2734 84.9265L117.741 29.4611V5.30163C117.742 4.8331 117.931 4.38391 118.266 4.05261C118.602 3.72131 119.057 3.53495 119.532 3.53442H131.072C131.546 3.53494 132.001 3.72129 132.337 4.0526C132.673 4.3839 132.862 4.8331 132.862 5.30163V15.1172L137.278 10.9277C144.505 4.07207 154.093 0.169903 164.116 0.00541883C174.138 -0.159065 183.852 3.42632 191.306 10.041L275.645 84.8862C275.914 85.1253 276.103 85.4394 276.188 85.7869C276.273 86.1345 276.249 86.4993 276.119 86.8331C275.989 87.1669 275.76 87.4541 275.462 87.6567C275.163 87.8592 274.81 87.9677 274.447 87.9677V87.9677Z" fill="#CACACA"/>
<path d="M125.501 98.3745C126.99 98.3745 128.465 98.664 129.841 99.2265C131.216 99.7889 132.467 100.613 133.52 101.653C134.573 102.692 135.408 103.926 135.978 105.284C136.548 106.642 136.841 108.097 136.841 109.567V124.686H114.16V109.567C114.16 108.097 114.453 106.642 115.023 105.284C115.593 103.926 116.429 102.692 117.482 101.653C118.535 100.613 119.785 99.7889 121.161 99.2265C122.537 98.664 124.011 98.3745 125.501 98.3745Z" fill="white"/>
<path d="M167.48 98.5708C170.488 98.5708 173.372 99.75 175.499 101.849C177.626 103.948 178.821 106.795 178.821 109.763V124.883H156.14V109.763C156.14 106.795 157.334 103.948 159.461 101.849C161.588 99.75 164.473 98.5708 167.48 98.5708Z" fill="white"/>
<path d="M209.461 98.7671C212.468 98.7671 215.353 99.9463 217.48 102.045C219.606 104.144 220.801 106.991 220.801 109.959V125.079H198.12V109.959C198.12 106.991 199.315 104.144 201.442 102.045C203.568 99.9463 206.453 98.7671 209.461 98.7671Z" fill="white"/>
<path d="M226.175 165.725C229.182 165.725 232.067 166.904 234.194 169.003C236.32 171.102 237.515 173.949 237.515 176.917V192.036H214.834V176.917C214.834 173.949 216.029 171.102 218.156 169.003C220.282 166.904 223.167 165.725 226.175 165.725Z" fill="white"/>
<path d="M113.963 165.725C116.97 165.725 119.855 166.904 121.982 169.003C124.108 171.102 125.303 173.949 125.303 176.917V192.036H102.622V176.917C102.622 175.447 102.915 173.992 103.485 172.634C104.055 171.276 104.891 170.042 105.944 169.003C106.997 167.963 108.247 167.139 109.623 166.577C110.999 166.014 112.473 165.725 113.963 165.725Z" fill="white"/>
<path d="M297.568 155.06L259.798 138.566C259.595 138.477 259.376 138.432 259.154 138.432H79.1486C78.9431 138.432 78.7396 138.471 78.5492 138.547L37.4366 155.041C37.0946 155.178 36.8116 155.429 36.636 155.749C36.4604 156.07 36.4031 156.44 36.4739 156.798C36.5447 157.155 36.7393 157.477 37.0242 157.709C37.3092 157.941 37.6668 158.067 38.036 158.067H48.7027V212.262H47.509V217.76H287.451V212.262H285.462V158.067H296.924C297.289 158.067 297.643 157.943 297.927 157.717C298.21 157.49 298.406 157.174 298.481 156.821C298.557 156.469 298.507 156.102 298.341 155.781C298.175 155.46 297.902 155.206 297.568 155.06ZM282.279 212.262H51.8861V158.067H282.279V212.262Z" fill="#CACACA"/>
<path d="M139.626 122.527H110.578V127.239H139.626V122.527Z" fill="#CACACA"/>
<path d="M182.203 122.527H153.155V127.239H182.203V122.527Z" fill="#CACACA"/>
<path d="M224.78 122.527H195.732V127.239H224.78V122.527Z" fill="#CACACA"/>
<path d="M240.695 190.466H211.647V195.179H240.695V190.466Z" fill="#CACACA"/>
<path d="M128.088 190.466H99.04V195.179H128.088V190.466Z" fill="#CACACA"/>
<path d="M343.898 218H0.920137C0.819847 218 0.723664 217.939 0.652748 217.83C0.581832 217.72 0.541992 217.572 0.541992 217.417C0.541992 217.263 0.581832 217.115 0.652748 217.005C0.723664 216.896 0.819847 216.834 0.920137 216.834H343.898C343.998 216.834 344.094 216.896 344.165 217.005C344.236 217.115 344.276 217.263 344.276 217.417C344.276 217.572 344.236 217.72 344.165 217.83C344.094 217.939 343.998 218 343.898 218Z" fill="#3F3D56"/>
<path d="M233.113 83.8216C233.113 84.1297 233.108 84.4424 233.103 84.7504C233.098 85.121 233.088 85.4867 233.074 85.8572C233.059 86.1797 233.044 86.4973 233.025 86.8149C232.966 87.8785 232.874 88.9372 232.747 90.0007C232.718 90.2702 232.684 90.5349 232.645 90.8044C232.615 91.0113 232.586 91.2231 232.552 91.4348C232.518 91.6706 232.484 91.9064 232.445 92.1422C232.367 92.6427 232.279 93.1432 232.181 93.6437C232.133 93.8939 232.084 94.1442 232.03 94.3944C231.928 94.8901 231.816 95.3906 231.699 95.8863C231.689 95.9248 231.679 95.968 231.669 96.0066C231.611 96.252 231.552 96.4926 231.489 96.7381C231.469 96.8102 231.455 96.8776 231.43 96.9498C231.387 97.1327 231.338 97.3155 231.289 97.4984C231.221 97.7534 231.153 98.0036 231.079 98.2587C230.962 98.6534 230.845 99.0432 230.723 99.4378C230.708 99.4788 230.695 99.5205 230.684 99.5629C230.45 100.309 230.202 101.045 229.929 101.777C229.787 102.162 229.636 102.551 229.485 102.936C229.334 103.321 229.178 103.706 229.017 104.087C228.861 104.457 228.7 104.828 228.539 105.193C228.5 105.28 228.461 105.367 228.417 105.453C228.246 105.833 228.071 106.204 227.89 106.575C227.886 106.579 227.886 106.589 227.881 106.594C227.739 106.892 227.588 107.19 227.437 107.484C227.437 107.493 227.433 107.502 227.427 107.508C227.281 107.797 227.13 108.086 226.974 108.369L226.725 108.836L226.696 108.889C226.384 109.462 226.062 110.03 225.721 110.593C225.647 110.718 225.574 110.843 225.501 110.963C225.428 111.088 225.35 111.214 225.272 111.334C225.223 111.421 225.17 111.507 225.111 111.594C225.009 111.757 224.906 111.926 224.799 112.089C224.779 112.123 224.755 112.157 224.736 112.19C224.55 112.474 224.365 112.754 224.18 113.037C223.951 113.379 223.716 113.716 223.478 114.053L218.182 122.417L217.953 122.229L217.89 122.171H217.885L217.675 121.998L217.1 121.517C216.924 121.685 216.753 121.854 216.578 122.017C216.51 122.085 216.436 122.147 216.368 122.215C216.315 122.263 216.266 122.311 216.212 122.359C207.057 131.182 194.879 136.292 182.089 136.676H182.075C172.392 136.938 162.808 134.706 154.266 130.198C154.076 130.102 153.891 130.006 153.705 129.895C152.594 129.298 151.506 128.668 150.438 127.994C150.434 127.989 150.429 127.989 150.424 127.985C149.185 127.118 147.976 126.194 146.796 125.213C140.465 119.946 135.457 113.304 132.164 105.807C128.87 98.3105 127.381 90.1625 127.813 82.0024C127.828 81.68 127.847 81.3624 127.872 81.04C127.95 79.8754 128.07 78.7156 128.233 77.5606C128.277 77.2382 128.325 76.9158 128.374 76.5981H232.615C232.82 78.0707 232.962 79.5513 233.04 81.04C233.088 81.9689 233.113 82.8929 233.113 83.8216Z" fill="#F0F0F0"/>
<path d="M232.614 76.5987C230.737 64.2817 224.444 53.0381 214.88 44.9119C205.315 36.7857 193.114 32.3164 180.493 32.3164C167.873 32.3164 155.671 36.7857 146.106 44.9119C136.542 53.0381 130.249 64.2817 128.372 76.5987C128.324 76.9163 128.275 77.2388 128.231 77.5612C128.07 78.7162 127.95 79.8759 127.87 81.0405H233.038C232.96 79.5535 232.818 78.0729 232.614 76.5987Z" fill="#1E6EE3"/>
<path d="M183.908 130.196H153.707V106.352C154.264 95.4556 163.701 94.5757 172.568 95.1604C174.057 95.1603 175.532 95.4498 176.908 96.0121C178.284 96.5745 179.534 97.3989 180.587 98.4382C181.64 99.4774 182.475 100.711 183.045 102.069C183.615 103.427 183.908 104.882 183.908 106.352V130.196Z" fill="#1E6EE3"/>
<path d="M153.705 113.244V113.248C153.705 113.253 153.71 113.253 153.715 113.253L153.705 113.244ZM141.559 76.5973C141.54 76.7177 141.515 76.838 141.496 76.9583C141.515 76.838 141.54 76.7177 141.564 76.5973H141.559ZM140.954 81.0391C140.94 81.222 140.925 81.4049 140.915 81.5878C140.925 81.4049 140.94 81.222 140.959 81.0391C140.958 81.0054 140.96 80.9716 140.964 80.9381C140.959 80.9718 140.959 81.0055 140.954 81.0391ZM153.705 113.248C153.705 113.253 153.71 113.253 153.715 113.253L153.705 113.244V113.248ZM141.559 76.5973C141.54 76.7177 141.515 76.838 141.496 76.9583C141.515 76.838 141.54 76.7177 141.564 76.5973H141.559ZM140.915 81.5878C140.925 81.4049 140.94 81.222 140.959 81.0391C140.958 81.0054 140.96 80.9716 140.964 80.9381C140.959 80.9718 140.959 81.0055 140.954 81.0391C140.94 81.222 140.925 81.4049 140.915 81.5878ZM291.558 170.116C291.463 170.017 291.362 169.924 291.255 169.837L291.25 169.832L267.104 149.721L266.48 149.201L264.105 147.223L263.51 146.728L260.126 143.908L259.2 143.138L257.284 141.54L256.303 140.722L247.058 133.027L241.758 128.614L241.046 128.022L225.428 115.014C225.667 114.678 225.901 114.341 226.13 113.999C226.315 113.715 226.501 113.436 226.686 113.152C226.705 113.118 226.73 113.085 226.749 113.051C226.857 112.887 226.959 112.719 227.061 112.555C227.12 112.469 227.174 112.382 227.222 112.295C227.3 112.175 227.378 112.05 227.452 111.925C227.525 111.805 227.598 111.68 227.671 111.554C228.012 110.991 228.334 110.423 228.646 109.851L228.675 109.798L228.924 109.331C229.08 109.047 229.231 108.758 229.378 108.47C229.384 108.463 229.387 108.455 229.387 108.446C229.538 108.152 229.69 107.854 229.831 107.555C229.836 107.55 229.836 107.541 229.841 107.536C230.021 107.165 230.197 106.795 230.367 106.415C230.411 106.328 230.45 106.242 230.489 106.155C230.65 105.789 230.811 105.419 230.967 105.048C231.128 104.668 231.284 104.283 231.435 103.898C231.587 103.513 231.738 103.123 231.879 102.738C232.147 102.002 232.399 101.264 232.635 100.524C232.646 100.482 232.659 100.44 232.674 100.399C232.796 100.005 232.913 99.6149 233.03 99.2203C233.103 98.9652 233.171 98.715 233.239 98.4599C233.288 98.2771 233.337 98.0942 233.381 97.9113C233.405 97.8392 233.42 97.7718 233.439 97.6996C233.503 97.4542 233.561 97.2136 233.62 96.9681C233.63 96.9296 233.639 96.8863 233.649 96.8478C233.766 96.3522 233.878 95.8516 233.981 95.3559C234.034 95.1058 234.083 94.8555 234.132 94.6053C234.224 94.1048 234.317 93.6043 234.395 93.1038C234.434 92.868 234.468 92.6322 234.502 92.3964C234.536 92.1847 234.566 91.9729 234.595 91.7659C234.634 91.4965 234.668 91.2318 234.697 90.9623C234.824 89.8988 234.917 88.8401 234.975 87.7765C234.995 87.4589 235.01 87.1413 235.024 86.8188C235.039 86.4483 235.048 86.0825 235.053 85.712C235.058 85.404 235.063 85.0912 235.063 84.7832C235.063 83.8544 235.039 82.9304 234.99 82.0016C234.912 80.5146 234.771 79.034 234.566 77.5598C232.819 64.9585 226.535 53.3985 216.863 44.9928C207.192 36.5872 194.778 31.8974 181.891 31.7806C169.005 31.6638 156.506 36.1278 146.679 44.3567C136.853 52.5856 130.355 64.0298 128.374 76.5974C128.325 76.915 128.277 77.2374 128.233 77.5598C128.072 78.7148 127.952 79.8746 127.872 81.0392C127.847 81.3616 127.828 81.6792 127.813 82.0016C127.381 90.1617 128.87 98.3097 132.164 105.807C135.457 113.304 140.465 119.946 146.796 125.212C147.976 126.194 149.185 127.118 150.424 127.984C150.429 127.989 150.433 127.989 150.438 127.993C150.853 128.282 151.267 128.566 151.687 128.845C152.355 129.278 153.028 129.702 153.705 130.106C153.759 130.135 153.813 130.169 153.866 130.197C154.451 130.544 155.041 130.876 155.631 131.198H155.636C157.833 132.39 160.112 133.426 162.458 134.298C169.34 136.853 176.68 137.99 184.025 137.637H184.04C192.612 137.228 200.959 134.79 208.376 130.529C209.454 129.914 210.517 129.254 211.555 128.552C211.814 128.378 212.077 128.2 212.331 128.022C212.643 127.806 212.955 127.58 213.267 127.353C213.272 127.353 213.272 127.349 213.277 127.349C213.3 127.329 213.324 127.312 213.35 127.296C213.559 127.137 213.774 126.978 213.979 126.824C214.033 126.785 214.086 126.747 214.14 126.704C214.154 126.694 214.167 126.683 214.179 126.67C214.301 126.583 214.418 126.487 214.54 126.396C214.661 126.304 214.778 126.208 214.9 126.112C214.921 126.099 214.941 126.084 214.959 126.068C215.095 125.958 215.232 125.852 215.368 125.741C215.51 125.631 215.646 125.515 215.778 125.404C215.915 125.294 216.046 125.183 216.183 125.067C216.3 124.971 216.422 124.87 216.539 124.764C216.578 124.735 216.612 124.702 216.651 124.668C216.666 124.654 216.682 124.641 216.7 124.629C216.861 124.495 217.017 124.355 217.173 124.216C217.212 124.182 217.246 124.148 217.285 124.115C217.524 123.903 217.763 123.691 217.997 123.47C218.05 123.422 218.109 123.369 218.163 123.321C218.216 123.272 218.265 123.224 218.319 123.176C218.387 123.109 218.46 123.046 218.528 122.979C218.704 122.815 218.875 122.647 219.05 122.478L219.625 122.96L219.835 123.133H219.84L219.903 123.191L220.132 123.378L223.536 126.218L223.609 126.28L223.668 126.323L224.053 126.646L224.823 127.291L225.594 127.931L225.706 128.022L229.29 131.006L229.787 131.42L233.244 134.298L251.14 149.202L251.764 149.721L276.256 170.116L282.537 175.347L284.872 177.291C285.368 177.705 285.942 178.019 286.56 178.214C287.179 178.409 287.831 178.482 288.478 178.428C289.125 178.374 289.755 178.195 290.332 177.901C290.909 177.607 291.422 177.204 291.84 176.714C292.191 176.307 292.47 175.845 292.664 175.347C293.019 174.464 293.102 173.498 292.906 172.568C292.709 171.638 292.24 170.786 291.558 170.116ZM150.312 58.5606C155.203 52.8394 161.635 48.6008 168.865 46.3343C176.094 44.0679 183.825 43.8661 191.166 45.7524C198.506 47.6386 205.156 51.5359 210.347 56.9939C215.539 62.452 219.06 69.2482 220.503 76.5973C220.567 76.9198 220.625 77.2374 220.679 77.5598C220.879 78.71 221.025 79.8746 221.113 81.0391C221.137 81.3616 221.161 81.6792 221.176 82.0016C221.22 82.7235 221.239 83.4501 221.239 84.172C221.242 88.5507 220.507 92.8994 219.065 97.0402V97.0451C217.452 101.688 214.977 105.993 211.765 109.74C211.697 109.817 211.629 109.899 211.555 109.976C210.912 110.727 210.234 111.449 209.537 112.137C209.532 112.142 209.527 112.151 209.522 112.156C209.283 112.392 209.039 112.632 208.796 112.854C208.298 113.33 207.791 113.782 207.274 114.216C206.499 114.885 205.704 115.512 204.89 116.097C204.617 116.295 204.344 116.487 204.066 116.68C203.793 116.872 203.515 117.055 203.237 117.238C202.681 117.604 202.115 117.955 201.545 118.287C201.262 118.455 200.969 118.619 200.682 118.778C200.394 118.941 200.101 119.095 199.809 119.245C199.516 119.399 199.224 119.548 198.926 119.692C198.336 119.986 197.741 120.26 197.137 120.515C196.835 120.65 196.532 120.775 196.23 120.89C196.04 120.967 195.854 121.044 195.664 121.112C195.59 121.146 195.513 121.175 195.435 121.198C195.333 121.242 195.23 121.28 195.128 121.314C195.095 121.329 195.06 121.342 195.025 121.352C194.816 121.434 194.611 121.506 194.396 121.579C194.089 121.689 193.782 121.79 193.47 121.887C193.158 121.988 192.851 122.084 192.539 122.17C192.226 122.267 191.91 122.353 191.597 122.435C191.281 122.522 190.969 122.604 190.652 122.676C190.315 122.762 189.979 122.839 189.637 122.912C189.34 122.979 189.047 123.037 188.75 123.09C188.472 123.147 188.189 123.196 187.911 123.244C187.521 123.311 187.131 123.374 186.736 123.427C186.521 123.46 186.312 123.489 186.097 123.508C186.005 123.523 185.917 123.532 185.829 123.542C185.556 123.581 185.283 123.609 185.015 123.633C184.942 123.638 184.873 123.648 184.805 123.653C184.508 123.682 184.205 123.706 183.908 123.73C183.269 123.773 182.635 123.802 181.996 123.816C181.675 123.821 181.348 123.826 181.026 123.826C180.704 123.826 180.382 123.821 180.061 123.811C180.061 123.811 180.061 123.816 180.056 123.811C180.051 123.816 180.051 123.816 180.046 123.811C180.045 123.812 180.045 123.813 180.044 123.813C180.043 123.813 180.042 123.814 180.041 123.814C180.04 123.814 180.039 123.813 180.039 123.813C180.038 123.813 180.037 123.812 180.036 123.811C180.02 123.816 180.003 123.816 179.988 123.811C179.758 123.811 179.529 123.802 179.305 123.787C179.139 123.783 178.968 123.778 178.798 123.763C178.569 123.754 178.34 123.739 178.11 123.72C178.037 123.72 177.964 123.71 177.891 123.706C177.857 123.705 177.822 123.702 177.788 123.696C177.554 123.677 177.315 123.657 177.081 123.633C176.964 123.624 176.843 123.614 176.725 123.6C176.369 123.561 176.013 123.518 175.662 123.47C175.263 123.422 174.863 123.364 174.468 123.292C174.283 123.268 174.102 123.234 173.922 123.2C173.683 123.162 173.444 123.118 173.205 123.07C172.956 123.022 172.708 122.974 172.459 122.916C172.259 122.873 172.054 122.83 171.854 122.782C171.757 122.762 171.659 122.738 171.567 122.714C171.055 122.594 170.547 122.464 170.045 122.32C169.728 122.233 169.411 122.142 169.099 122.045C168.67 121.915 168.246 121.776 167.822 121.627C167.656 121.574 167.495 121.516 167.329 121.453C167.163 121.401 167.002 121.338 166.837 121.275C166.686 121.222 166.534 121.165 166.388 121.107C166.144 121.016 165.905 120.919 165.666 120.823C165.174 120.626 164.691 120.419 164.208 120.197C163.935 120.068 163.662 119.942 163.394 119.812C162.336 119.307 161.294 118.746 160.268 118.128C160.015 117.979 159.761 117.82 159.508 117.661C159.191 117.469 158.884 117.267 158.577 117.065C158.406 116.949 158.24 116.838 158.074 116.723C157.767 116.511 157.465 116.295 157.167 116.078C157.011 115.967 156.855 115.852 156.704 115.736C156.163 115.332 155.631 114.909 155.11 114.476C154.861 114.269 154.612 114.057 154.368 113.84C154.266 113.754 154.164 113.662 154.061 113.571C153.944 113.465 153.827 113.364 153.715 113.253L153.705 113.244C153.535 113.094 153.364 112.936 153.198 112.777C152.94 112.536 152.686 112.291 152.442 112.041C152.189 111.795 151.945 111.54 151.706 111.29C151.462 111.04 151.228 110.784 150.999 110.525C150.765 110.27 150.536 110.01 150.312 109.745C150.092 109.495 149.878 109.235 149.673 108.98C149.175 108.373 148.701 107.756 148.249 107.127C148.039 106.838 147.839 106.55 147.644 106.256C147.435 105.958 147.235 105.654 147.045 105.351C146.845 105.048 146.654 104.74 146.469 104.427C146.464 104.417 146.458 104.407 146.45 104.398C146.084 103.787 145.733 103.171 145.406 102.546C145.07 101.91 144.753 101.269 144.455 100.621C144.304 100.298 144.158 99.971 144.021 99.6438C143.739 98.9845 143.475 98.3253 143.231 97.6563C143.11 97.3339 142.997 97.0114 142.885 96.6842C142.882 96.6625 142.875 96.6415 142.866 96.6217C142.641 95.9575 142.437 95.2886 142.256 94.6149C142.251 94.6053 142.251 94.5957 142.246 94.5861C142.154 94.254 142.066 93.9219 141.988 93.5851C141.91 93.2915 141.842 92.9979 141.778 92.6996C141.705 92.3675 141.632 92.0355 141.569 91.6986C141.535 91.5253 141.5 91.3521 141.471 91.1789C141.442 91.0345 141.417 90.8853 141.393 90.741C141.369 90.5966 141.344 90.4474 141.32 90.2982C141.271 90.0047 141.227 89.7111 141.188 89.4176C141.14 89.0711 141.101 88.7246 141.062 88.3733C141.018 87.9546 140.979 87.5359 140.945 87.1124C140.92 86.8285 140.906 86.5397 140.891 86.251C140.876 85.9864 140.862 85.7217 140.857 85.457C140.852 85.4429 140.852 85.4277 140.857 85.4137C140.856 85.413 140.856 85.4123 140.855 85.4115C140.855 85.4107 140.855 85.4098 140.855 85.4089C140.855 85.408 140.855 85.4071 140.855 85.4062C140.856 85.4054 140.856 85.4047 140.857 85.4041C140.852 85.3992 140.852 85.3992 140.857 85.3944C140.856 85.3938 140.856 85.3931 140.855 85.3922C140.855 85.3914 140.855 85.3905 140.855 85.3896C140.855 85.3887 140.855 85.3878 140.855 85.387C140.856 85.3862 140.856 85.3854 140.857 85.3848C140.852 85.2789 140.847 85.1731 140.847 85.0672C140.837 84.7544 140.832 84.4416 140.832 84.1288C140.832 83.8448 140.837 83.5657 140.842 83.2818C140.852 82.8872 140.867 82.4926 140.886 82.098C140.886 82.0113 140.896 81.9295 140.901 81.8429C140.906 81.7563 140.91 81.6745 140.915 81.5879C140.925 81.405 140.94 81.2221 140.959 81.0392C140.958 81.0055 140.96 80.9717 140.964 80.9382C140.979 80.7313 140.998 80.5243 141.018 80.3174C141.057 79.9035 141.105 79.4849 141.159 79.071C141.188 78.8641 141.213 78.6571 141.247 78.4502C141.266 78.3058 141.291 78.1566 141.315 78.0075C141.335 77.8583 141.359 77.7091 141.388 77.5599C141.422 77.3626 141.457 77.1605 141.495 76.9584C141.515 76.8381 141.539 76.7177 141.564 76.5974C141.656 76.1162 141.759 75.635 141.871 75.1537C141.983 74.6677 142.11 74.1864 142.246 73.7052C142.378 73.2192 142.524 72.7331 142.68 72.2471C142.754 72.0016 142.832 71.761 142.919 71.5204C143.08 71.0344 143.251 70.5531 143.441 70.0767C143.529 69.8409 143.621 69.6003 143.724 69.3645C143.919 68.888 144.124 68.4116 144.333 67.9448C144.441 67.709 144.548 67.4732 144.665 67.2374C144.884 66.7706 145.114 66.3038 145.362 65.8466C145.601 65.3798 145.86 64.9227 146.123 64.4703C146.386 64.0179 146.659 63.5656 146.947 63.118C147.079 62.8966 147.225 62.6705 147.376 62.4539C147.669 62.0112 147.976 61.5684 148.288 61.1353C148.917 60.2594 149.595 59.398 150.312 58.5606ZM140.954 81.0391C140.94 81.222 140.925 81.4049 140.915 81.5878C140.925 81.4049 140.94 81.222 140.959 81.0391C140.958 81.0054 140.96 80.9716 140.964 80.9381C140.959 80.9718 140.959 81.0055 140.954 81.0391ZM141.559 76.5973C141.54 76.7177 141.515 76.838 141.496 76.9583C141.515 76.838 141.54 76.7177 141.564 76.5973H141.559ZM153.705 113.244V113.248C153.705 113.253 153.71 113.253 153.715 113.253L153.705 113.244Z" fill="#3F3D56"/>
<path opacity="0.3" d="M155.109 114.476C147.396 108.053 142.413 99.0016 141.149 89.12C139.885 79.2385 142.433 69.2492 148.286 61.1357C147.518 61.8998 146.775 62.6999 146.057 63.5362C142.652 67.5185 140.076 72.1237 138.474 77.0889C136.873 82.054 136.278 87.2818 136.724 92.4738C137.169 97.6658 138.647 102.72 141.072 107.349C143.497 111.977 146.822 116.089 150.857 119.449C159.006 126.236 169.553 129.549 180.178 128.661C190.802 127.772 200.634 122.755 207.51 114.712C208.226 113.875 208.9 113.017 209.533 112.14C202.414 119.199 192.865 123.358 182.783 123.791C172.7 124.224 162.822 120.899 155.109 114.476Z" fill="black"/>
</svg>
