<svg width="24" height="24" viewBox="0 0 24 24" fill="none" xmlns="http://www.w3.org/2000/svg">
<rect width="24" height="24" rx="2.66667" fill="#EDF8F0"/>
<path fill-rule="evenodd" clip-rule="evenodd" d="M9.07798 5.14962C8.82216 5.25233 8.54381 5.49762 8.41681 5.73222C8.33035 5.89202 8.30099 6.00941 8.28741 6.25009C8.27056 6.54749 8.30861 6.7175 8.46008 7.02193C8.48166 7.06525 8.44472 7.0974 8.313 7.14991C8.06323 7.24951 7.73006 7.55203 7.57929 7.81611C7.40666 8.11856 7.32575 8.52457 7.41125 8.65932C7.49237 8.78711 7.65805 8.86682 7.78434 8.83878C7.97888 8.79561 8.03453 8.72669 8.09254 8.45741C8.16054 8.14204 8.22248 8.03131 8.43027 7.85386C8.6875 7.63416 8.8147 7.60487 9.50895 7.60527C10.0639 7.6056 10.1406 7.61366 10.3298 7.69158C10.6732 7.83299 10.8654 8.07942 10.9231 8.45258C10.9678 8.74207 11.106 8.86946 11.3395 8.83643C11.5782 8.80267 11.6454 8.69637 11.6231 8.3881C11.5891 7.919 11.2706 7.46335 10.7907 7.19718C10.6729 7.13186 10.5701 7.07441 10.5621 7.06954C10.5542 7.0647 10.5873 6.96716 10.6357 6.8528C10.9404 6.13277 10.5835 5.34006 9.85608 5.1208C9.6427 5.05646 9.27616 5.07005 9.07798 5.14962ZM14.1376 5.12329C13.7557 5.24369 13.4252 5.58389 13.3111 5.974C13.2217 6.28008 13.2313 6.46943 13.3524 6.7885C13.4102 6.94068 13.4521 7.0684 13.4456 7.07236C13.439 7.07631 13.3592 7.11922 13.2681 7.16767C12.7294 7.45427 12.3778 7.96466 12.3778 8.4602C12.3778 8.70051 12.4604 8.80666 12.6708 8.83643C12.901 8.86898 13.0315 8.74756 13.0847 8.45137C13.1535 8.06847 13.3387 7.8323 13.6805 7.69158C13.8697 7.61366 13.9464 7.6056 14.5013 7.60527C15.1955 7.60487 15.3228 7.63416 15.58 7.85386C15.7878 8.03131 15.8497 8.14204 15.9177 8.45741C15.9757 8.72669 16.0314 8.79561 16.2259 8.83878C16.3522 8.86682 16.5179 8.78711 16.599 8.65932C16.6845 8.52457 16.6036 8.11856 16.431 7.81611C16.2802 7.55203 15.947 7.24951 15.6972 7.14991C15.5655 7.0974 15.5286 7.06525 15.5502 7.02193C15.7026 6.7156 15.7396 6.54841 15.7214 6.25009C15.6985 5.87726 15.6037 5.66536 15.3509 5.42179C15.1122 5.19191 14.8315 5.07832 14.5103 5.08162C14.3737 5.08301 14.206 5.10176 14.1376 5.12329ZM9.76738 5.79674C9.95252 5.93449 10.0309 6.09121 10.0308 6.32333C10.0304 6.96027 9.34129 7.18345 9.06083 6.63746C8.90497 6.33394 9.01007 5.92058 9.28013 5.77496C9.46506 5.67525 9.61301 5.68188 9.76738 5.79674ZM14.7301 5.77496C15.0002 5.92058 15.1053 6.33394 14.9494 6.63746C14.669 7.18345 13.9799 6.96027 13.9795 6.32333C13.9793 6.09121 14.0577 5.93449 14.2429 5.79674C14.3972 5.68188 14.5452 5.67525 14.7301 5.77496ZM5.3591 6.97843C4.63467 7.14522 4.1846 7.89905 4.40464 8.57715C4.44348 8.69692 4.50237 8.83222 4.53549 8.87781C4.59189 8.95547 4.58845 8.96309 4.48046 8.99934C4.10754 9.12464 3.66236 9.58037 3.53528 9.9669C3.44406 10.2444 3.44695 10.5193 3.54207 10.6126C3.78489 10.851 4.17897 10.6987 4.17897 10.3664C4.17897 10.079 4.44266 9.72728 4.77409 9.57257C4.9184 9.50523 5.02912 9.49066 5.48527 9.47916C6.08756 9.46397 6.26259 9.49242 6.54661 9.6517C6.78711 9.78656 6.94168 10.0138 7.00106 10.3197C7.06873 10.6684 7.24334 10.8007 7.5072 10.7033C7.70865 10.6288 7.76099 10.4874 7.70053 10.1804C7.60695 9.70516 7.32334 9.33208 6.86595 9.08242C6.68085 8.9814 6.62578 8.93281 6.64735 8.88949C6.79696 8.58876 6.83688 8.41428 6.81986 8.13585C6.78143 7.50773 6.31228 7.02263 5.69037 6.968C5.5765 6.958 5.42743 6.96269 5.3591 6.97843ZM18.129 6.99447C17.881 7.05588 17.6176 7.2294 17.4431 7.44658C17.1243 7.84302 17.096 8.3524 17.3629 8.88949C17.3845 8.93281 17.3294 8.98143 17.1443 9.08242C16.6869 9.33208 16.4033 9.70516 16.3097 10.1804C16.2493 10.4874 16.3016 10.6288 16.5031 10.7033C16.7669 10.8007 16.9415 10.6684 17.0092 10.3197C17.0686 10.0138 17.2231 9.78656 17.4636 9.6517C17.75 9.49114 17.9255 9.46272 18.5269 9.47968C18.9755 9.49231 19.0937 9.50798 19.2362 9.5736C19.5665 9.72581 19.8313 10.0786 19.8313 10.3664C19.8313 10.6987 20.2254 10.851 20.4683 10.6126C20.5344 10.5476 20.5432 10.4945 20.5263 10.2616C20.4909 9.7733 20.1464 9.3037 19.6385 9.05123C19.4414 8.95324 19.4298 8.93998 19.4804 8.87023C19.6001 8.70509 19.6769 8.3654 19.6525 8.10882C19.5808 7.35265 18.8478 6.81651 18.129 6.99447ZM5.87054 7.69747C6.32404 8.0349 6.10677 8.84987 5.56333 8.84987C5.34105 8.84987 5.049 8.48601 5.049 8.20908C5.049 8.05243 5.14055 7.85782 5.27244 7.73416C5.44925 7.5684 5.67815 7.55434 5.87054 7.69747ZM18.7329 7.72959C19.0456 8.0227 19.0165 8.49623 18.6702 8.75397C18.3601 8.98469 17.9583 8.75009 17.8985 8.3034C17.8267 7.76792 18.3731 7.39224 18.7329 7.72959ZM9.23309 10.4643C8.88626 10.5245 8.4554 10.7371 8.1713 10.9883C7.93399 11.1982 7.8679 11.2926 7.55535 11.8688L7.20521 12.5143L6.99783 12.4214C6.7363 12.3042 6.5411 12.3006 6.42698 12.4108C6.21518 12.6155 6.29191 12.8206 6.63916 12.9782L6.86131 13.0791L5.95952 14.3597V15.9186C5.95952 17.418 5.96263 17.4805 6.04093 17.5548C6.08574 17.5974 6.15758 17.642 6.20068 17.6541C6.26499 17.6722 6.28305 17.7238 6.3018 17.9431C6.34077 18.3985 6.52826 18.6627 6.93262 18.832C7.13059 18.9149 7.17929 18.9187 8.04215 18.9191L8.94468 18.9194L9.0463 18.8295C9.14493 18.7424 9.14796 18.7237 9.14796 18.2071V17.6745H10.1144C10.2381 17.6745 10.3861 17.6588 10.4431 17.6396C10.6537 17.5688 10.7111 17.2934 10.5472 17.1392L10.4546 17.052H6.66346V16.1H7.57175C8.07316 16.1 8.52849 16.0837 8.58824 16.0636C8.76298 16.0048 8.83114 15.8084 8.79698 15.462C8.75122 14.9984 8.56592 14.6782 8.2142 14.4548C7.95788 14.2921 7.73221 14.2295 7.3014 14.2018L6.92487 14.1776L7.58335 13.2439H16.4258L17.0555 14.1776L16.6939 14.202C16.276 14.2303 16.0489 14.2942 15.796 14.4548C15.4447 14.678 15.2535 15.0083 15.2104 15.4666C15.1784 15.8067 15.2488 16.0054 15.422 16.0636C15.4818 16.0837 15.9371 16.1 16.4385 16.1H17.3468V17.052L14.8105 17.0532C12.8821 17.054 11.5726 17.065 11.5226 17.0989C11.3316 17.2286 11.3276 17.471 11.5143 17.6008C11.6152 17.671 12.3663 17.6745 13.5842 17.6745H14.8623V18.2071C14.8623 18.7237 14.8653 18.7424 14.9639 18.8295L15.0656 18.9194L15.9681 18.9191C16.8261 18.9187 16.8808 18.9145 17.0779 18.8334C17.3071 18.739 17.5317 18.5358 17.6249 18.3386C17.6583 18.2679 17.6958 18.0906 17.7083 17.9446C17.7297 17.6941 17.7378 17.6766 17.8511 17.6351C17.9171 17.611 17.989 17.5616 18.0109 17.5254C18.0347 17.4862 18.0501 16.8414 18.0492 15.9284L18.0477 14.3973L17.1458 13.0791L17.3696 12.9782C17.7184 12.821 17.7956 12.616 17.5833 12.4108C17.4692 12.3007 17.2739 12.3042 17.0129 12.4212L16.806 12.5139L16.4498 11.8637C16.1355 11.29 16.0629 11.1864 15.8333 10.9833C15.5433 10.7269 15.1202 10.5245 14.7428 10.4616C14.468 10.4158 9.49868 10.4183 9.23309 10.4643ZM14.6995 11.1043C14.8232 11.1358 15.0192 11.2184 15.1351 11.2877C15.44 11.4702 15.5544 11.6277 15.9639 12.4291L16.0621 12.6214H7.946L8.00368 12.5024C8.37602 11.7341 8.66182 11.3585 8.9882 11.2087C9.31529 11.0585 9.41019 11.0535 11.9872 11.0501C14.1302 11.0473 14.5057 11.0548 14.6995 11.1043ZM9.8625 14.2361C9.53728 14.3208 9.32804 14.663 9.40655 14.9821C9.46518 15.2202 9.94022 16 10.0589 16.0528C10.2072 16.1188 13.8012 16.1193 13.9513 16.0534C14.0232 16.0218 14.1403 15.8594 14.3343 15.522C14.5704 15.1116 14.6138 15.0072 14.6138 14.8504C14.6138 14.6067 14.5151 14.4316 14.3102 14.3116L14.1438 14.2142L12.0703 14.2077C10.8513 14.2039 9.94146 14.2156 9.8625 14.2361ZM7.50914 14.8534C7.79966 14.913 8.07134 15.1641 8.07134 15.373V15.4775H6.66346V14.8184L7.00508 14.8193C7.19295 14.8197 7.41978 14.8351 7.50914 14.8534ZM13.9099 14.8361C13.9099 14.8459 13.8312 14.9942 13.735 15.1657L13.5602 15.4775H10.4501L10.2752 15.1657C10.179 14.9942 10.1003 14.8459 10.1003 14.8361C10.1003 14.8264 10.9575 14.8184 12.0051 14.8184C13.0528 14.8184 13.9099 14.8264 13.9099 14.8361ZM17.3468 15.4775H15.9389V15.373C15.9389 15.2529 16.076 15.0588 16.2339 14.9554C16.3827 14.8579 16.5594 14.8265 16.9845 14.8221L17.3468 14.8184V15.4775ZM10.7403 17.1419C10.5978 17.2678 10.6052 17.4309 10.7597 17.5674C10.8327 17.632 10.9244 17.6745 10.9906 17.6745C11.1469 17.6745 11.3426 17.4919 11.3426 17.3461C11.3426 17.0833 10.9551 16.9519 10.7403 17.1419ZM8.44402 18.297H7.84173C7.25746 18.297 7.23639 18.2943 7.13779 18.2071C7.05229 18.1315 7.03614 18.0821 7.03614 17.8958V17.6745H8.44402V18.297ZM16.9741 17.8958C16.9741 18.0821 16.958 18.1315 16.8725 18.2071C16.7739 18.2943 16.7528 18.297 16.1685 18.297H15.5662V17.6745H16.9741V17.8958Z" fill="#00BB34"/>
<path d="M9.67188 17.0552H12.5508L12.4609 17.6646L9.58594 17.6841L9.67188 17.0552Z" fill="#00BB34"/>
</svg>
