<svg width="20" height="20" viewBox="0 0 20 20" fill="none" xmlns="http://www.w3.org/2000/svg">
<path d="M17.715 6.50435L10.2418 2.28564C10.1213 2.28564 10.0008 2.28564 9.88023 2.28564L2.40708 6.50435C2.28655 6.50435 2.16602 6.62489 2.16602 6.86596V17.3525C2.16602 17.5935 2.28655 17.7141 2.52762 17.7141H17.4739C17.715 17.7141 17.8355 17.5935 17.8355 17.3525V6.86596C17.8355 6.62489 17.8355 6.50435 17.715 6.50435ZM15.0632 16.9909H5.05885V15.5444H15.1837V16.9909H15.0632ZM15.0632 14.8212H5.05885V13.3748H15.1837V14.8212H15.0632ZM15.0632 12.6516H5.05885V11.3257H15.1837V12.6516H15.0632ZM15.0632 10.6025H5.05885V9.27665H15.1837V10.6025H15.0632ZM17.1123 16.9909H15.7864V8.91505C15.7864 8.67398 15.6659 8.55344 15.4248 8.55344H4.57671C4.45617 8.55344 4.33564 8.67398 4.33564 8.91505V16.9909H2.88922V6.98649L10.0008 3.00885L17.1123 6.98649V16.9909Z" fill="#0F54B9" stroke="#0F54B9" stroke-width="0.5" stroke-miterlimit="10"/>
</svg>
